HIERARCHY
ROOT Hips
{
	OFFSET 0.000000 0.000000 0.000000
	CHANNELS 6 Xposition Yposition Zposition Zrotation Yrotation Xrotation 
	JOINT LeftUpLeg_virtual
	{
		OFFSET 0.000000 0.000000 0.000000
		CHANNELS 3 Zrotation Yrotation Xrotation
		JOINT LeftUpLeg
		{
			OFFSET 10.205400 -3.823500 0.155100
			CHANNELS 3 Zrotation Yrotation Xrotation
			JOINT LeftLeg
			{
				OFFSET 0.708757 -12.982077 0.567790
				CHANNELS 3 Zrotation Yrotation Xrotation
				JOINT LeftFoot
				{
					OFFSET -0.708756 -10.717838 -2.184338
					CHANNELS 3 Zrotation Yrotation Xrotation
					JOINT LeftToeBase
					{
						OFFSET 0.108149 -7.191104 7.560241
						CHANNELS 3 Zrotation Yrotation Xrotation
						End Site
						{
							OFFSET 0.000000 0.000000 0.000000
						}
					}
				}
			}
		}
	}
	JOINT RightUpLeg_virtual
	{
		OFFSET 0.000000 0.000000 0.000000
		CHANNELS 3 Zrotation Yrotation Xrotation
		JOINT RightUpLeg
		{
			OFFSET -10.205400 -3.823500 0.005500
			CHANNELS 3 Zrotation Yrotation Xrotation
			JOINT RightLeg
			{
				OFFSET -0.708756 -12.982134 0.610632
				CHANNELS 3 Zrotation Yrotation Xrotation
				JOINT RightFoot
				{
					OFFSET 0.708754 -10.717769 -1.945823
					CHANNELS 3 Zrotation Yrotation Xrotation
					JOINT RightToeBase
					{
						OFFSET -0.108140 -7.191069 7.372968
						CHANNELS 3 Zrotation Yrotation Xrotation
						End Site
						{
							OFFSET 0.000000 0.000000 0.000000
						}
					}
				}
			}
		}
	}
	JOINT Spine_virtual
	{
		OFFSET 0.000000 0.000000 0.000000
		CHANNELS 3 Zrotation Yrotation Xrotation
		JOINT Spine
		{
			OFFSET 0.000000 6.876099 0.125700
			CHANNELS 3 Zrotation Yrotation Xrotation
			JOINT Spine1
			{
				OFFSET 0.000000 8.022060 0.146608
				CHANNELS 3 Zrotation Yrotation Xrotation
				JOINT Spine2
				{
					OFFSET 0.000000 9.168068 0.167552
					CHANNELS 3 Zrotation Yrotation Xrotation
					JOINT Neck_virtual
					{
						OFFSET 0.000000 0.000000 0.000000
						CHANNELS 3 Zrotation Yrotation Xrotation
						JOINT Neck
						{
							OFFSET 0.000000 10.314075 0.188496
							CHANNELS 3 Zrotation Yrotation Xrotation
							JOINT Head
							{
								OFFSET 0.000000 7.643700 -2.377400
								CHANNELS 3 Zrotation Yrotation Xrotation
								End Site
								{
									OFFSET 0.000000 0.000000 0.000000
								}
							}
						}
					}
					JOINT LeftShoulder_virtual
					{
						OFFSET 0.000000 0.000000 0.000000
						CHANNELS 3 Zrotation Yrotation Xrotation
						JOINT LeftShoulder
						{
							OFFSET 4.392200 8.824978 0.174984
							CHANNELS 3 Zrotation Yrotation Xrotation
							JOINT LeftArm
							{
								OFFSET 8.771219 -2.981674 -0.026999
								CHANNELS 3 Zrotation Yrotation Xrotation
								JOINT LeftForeArm
								{
									OFFSET 8.512804 0.000000 -0.000000
									CHANNELS 3 Zrotation Yrotation Xrotation
									JOINT LeftHand
									{
										OFFSET 18.484802 0.000000 -0.000000
										CHANNELS 3 Zrotation Yrotation Xrotation
										End Site
										{
											OFFSET 0.000000 0.000000 0.000000
										}
									}
								}
							}
						}
					}
					JOINT RightShoulder_virtual
					{
						OFFSET 0.000000 0.000000 0.000000
						CHANNELS 3 Zrotation Yrotation Xrotation
						JOINT RightShoulder
						{
							OFFSET -4.392200 8.824993 0.141379
							CHANNELS 3 Zrotation Yrotation Xrotation
							JOINT RightArm
							{
								OFFSET -8.771282 -2.981682 -0.094208
								CHANNELS 3 Zrotation Yrotation Xrotation
								JOINT RightForeArm
								{
									OFFSET -8.494598 0.000000 0.000000
									CHANNELS 3 Zrotation Yrotation Xrotation
									JOINT RightHand
									{
										OFFSET -18.483803 0.000000 0.000001
										CHANNELS 3 Zrotation Yrotation Xrotation
										End Site
										{
											OFFSET 0.000000 0.000000 0.000000
										}
									}
								}
							}
						}
					}
				}
			}
		}
	}
}
MOTION
Frames: 5
Frame Time: 0.033333
20.340902 36.550201 -46.618202 -179.937058 -42.961569 179.813814 -0.419556 -3.507918 12.064015 -4.759299 -3.446089 -32.772013 7.593377 2.293462 39.202632 -2.539451 -1.254036 19.882828 0.000000 0.000000 0.000000 3.907332 -2.563929 11.677782 3.232840 -1.673980 -14.533010 -4.638240 0.052993 17.273764 8.974767 3.614738 10.911083 0.000000 0.000000 0.000000 1.893679 0.473851 0.028406 1.361230 1.518598 -12.543658 -0.778721 -2.200387 6.259458 0.006371 0.004730 -0.008637 -1.184267 0.221548 8.556921 -10.661555 -0.847576 28.234385 0.000000 0.000000 0.000000 0.840362 0.907912 5.315473 -14.353752 -12.436973 3.072766 -42.281524 20.883920 30.306813 -5.789869 -33.584498 5.931580 0.000000 0.000000 0.000000 -4.155461 2.187063 4.555414 26.814452 4.310610 -1.881205 53.871853 -27.762653 11.192591 -167.674492 73.151633 -170.253448 0.000000 0.000000 0.000000 
19.630264 36.466499 -47.408447 179.760006 -47.093516 -179.849809 -0.588137 -3.787872 11.747246 -4.482891 -2.468266 -35.767296 8.155289 3.126832 34.321018 -2.971656 -1.621799 21.266569 0.000000 0.000000 0.000000 4.247728 -2.618594 11.949832 2.968736 -3.747266 -11.674077 -4.258400 -0.933197 18.025930 8.072773 3.764208 7.398427 0.000000 0.000000 0.000000 2.013884 0.129065 -0.222800 1.098370 1.772695 -12.607043 -0.857487 -2.130991 6.405816 0.027350 0.021469 0.029308 -1.225605 0.253267 8.689320 -10.897846 -0.493525 28.168175 0.000000 0.000000 0.000000 0.872952 0.939847 5.435333 -14.469314 -12.204372 3.138080 -41.865757 23.003196 29.972328 -5.610444 -32.969385 6.320020 0.000000 0.000000 0.000000 -4.268023 2.144975 4.679305 26.921744 4.754956 -1.755918 52.659351 -28.365151 11.866502 -167.436282 73.302915 -169.640616 0.000000 0.000000 0.000000 
18.851427 36.313412 -48.206116 179.641065 -51.246899 -179.624071 -0.585399 -4.149167 11.361999 -4.621518 -1.442286 -38.621656 8.895851 3.993122 29.357485 -3.537500 -2.142298 22.281643 0.000000 0.000000 0.000000 4.541787 -2.892376 12.308729 3.347819 -5.274593 -8.947263 -4.300783 -1.539828 18.243995 7.168621 3.797353 5.403028 0.000000 0.000000 0.000000 2.219639 -0.146550 -0.510823 0.905864 1.910927 -12.687034 -0.948363 -2.116117 6.556000 0.013161 0.013440 -0.000980 -1.219988 0.257659 8.904821 -11.085947 -0.293070 27.996667 0.000000 0.000000 0.000000 0.886945 0.921641 5.642009 -14.549942 -12.007718 2.977308 -41.844269 25.222009 29.931327 -5.537613 -32.398719 6.739077 0.000000 0.000000 0.000000 -4.328788 2.244068 4.725705 27.097993 5.014073 -1.477033 51.312756 -28.864123 12.871923 -167.787900 73.364476 -169.648621 0.000000 0.000000 0.000000 
18.025578 36.095539 -48.966530 179.329554 -54.568956 -179.212771 -0.766205 -4.051083 11.091940 -5.532441 -0.450175 -41.547720 9.679768 4.869994 25.061965 -4.144702 -2.786230 21.923649 0.000000 0.000000 0.000000 4.526158 -3.216502 12.491888 3.917075 -6.241351 -6.481096 -4.676242 -1.750430 18.625924 6.290118 3.834927 3.758377 0.000000 0.000000 0.000000 2.266392 -0.271225 -0.727682 0.694228 1.986395 -12.790454 -1.032426 -2.083222 6.710464 0.081663 0.041493 0.024886 -1.283095 0.387724 8.974000 -11.200833 -0.056107 27.645805 0.000000 0.000000 0.000000 0.876217 0.985787 5.622934 -14.515243 -11.673393 2.941058 -42.158417 27.259652 30.088510 -5.456939 -31.878433 7.081253 0.000000 0.000000 0.000000 -4.452543 2.311233 4.794984 27.292662 5.515942 -1.205632 50.045947 -29.235962 14.012094 -168.164967 73.367112 -169.728179 0.000000 0.000000 0.000000 
17.176270 35.810955 -49.705025 178.711285 -57.449636 -178.703690 -1.160493 -3.793037 11.130253 -7.255818 0.295244 -44.228285 10.435584 5.979509 21.939510 -4.681888 -3.525618 20.185157 0.000000 0.000000 0.000000 4.309847 -3.721963 12.836743 4.699134 -6.826091 -4.223035 -5.048115 -2.164583 19.265216 5.562550 3.828952 2.363555 0.000000 0.000000 0.000000 2.010456 -0.316901 -0.716439 0.441266 1.956505 -12.883618 -1.124465 -2.061797 6.848515 0.063109 0.094601 -0.033671 -1.293975 0.241846 9.050145 -11.318739 0.201069 27.158379 0.000000 0.000000 0.000000 1.000285 1.006080 5.637269 -14.365493 -11.294146 2.924816 -42.693689 29.227305 30.534607 -5.425311 -31.326779 7.482635 0.000000 0.000000 0.000000 -4.456567 2.319854 4.861787 27.614101 6.062788 -1.012980 49.198850 -29.207767 15.010399 -168.432137 73.290566 -169.797902 0.000000 0.000000 0.000000 
